<svg width="715" height="276" viewBox="0 0 715 276" fill="none" xmlns="http://www.w3.org/2000/svg">
<g filter="url(#filter0_i_313_1358)">
<path d="M471.028 186.536L474.453 192.654C453.662 237.435 408.587 268.652 356.141 269.392C365.106 262.637 373.209 254.802 381.293 247.583C392.485 237.588 409.986 217.693 426.711 197.774C437.242 185.232 447.782 172.296 456.774 161.076L471.028 186.536ZM354.235 4.46094C394.169 4.46094 429.976 22.1315 454.264 50.0791L393.162 67.6191C381.657 61.1444 368.378 57.4503 354.236 57.4502C310.339 57.4503 274.752 93.0362 274.752 136.934C274.752 167.024 291.474 193.209 316.131 206.704C308.442 212.258 298.989 217.089 289.032 218.924C274.85 221.537 257.953 218.514 241.007 197.705L237.375 199.375C227.414 180.771 221.763 159.512 221.763 136.934C221.763 63.7712 281.073 4.46132 354.235 4.46094Z" fill="#529246"/>
<path d="M285.732 272.754C249.446 270.476 232.814 228.141 229.035 207.259C269.857 257.377 319.041 228.141 338.531 207.259L427.475 104.744L379.282 87.6583L498.346 53.4868L484.172 178.782L458.658 133.22C437.869 159.798 391.188 217.51 370.777 235.735C345.264 258.516 331.089 275.602 285.732 272.754Z" fill="#D0E32F"/>
<path d="M518.99 36.5963H496.469L513.36 22.5208L507.73 0L524.62 14.0756L547.141 0L538.696 22.5208L555.586 39.4114H533.066L524.62 59.1171L518.99 36.5963Z" fill="#0E6552"/>
<path d="M167.067 173.08C167.067 174.185 167.963 175.08 169.067 175.08H182.683C183.193 175.08 183.683 175.275 184.054 175.624L207.12 197.333C208.018 198.179 207.944 199.628 206.964 200.378L184.014 217.928C183.666 218.194 183.239 218.339 182.799 218.339H169.067C167.963 218.339 167.067 219.234 167.067 220.339V271.531C167.067 272.636 166.172 273.531 165.067 273.531H116.859C115.755 273.531 114.859 272.636 114.859 271.531V220.339C114.859 219.234 113.964 218.339 112.859 218.339H2C0.895431 218.339 0 217.443 0 216.339V174.206C0 173.804 0.121112 173.411 0.347545 173.079L111.281 10.3772C111.653 9.83082 112.272 9.50391 112.933 9.50391H165.067C166.172 9.50391 167.067 10.3993 167.067 11.5039V173.08ZM52.8296 171.959C51.9305 173.287 52.882 175.08 54.4858 175.08H114.351C115.455 175.08 116.351 174.185 116.351 173.08V84.6435C116.351 82.6719 113.8 81.8897 112.694 83.5223L52.8296 171.959Z" fill="#0E6552"/>
<path d="M673.786 174.958C673.786 176.062 674.682 176.958 675.786 176.958H689.401C689.911 176.958 690.401 177.152 690.772 177.501L713.837 199.209C714.736 200.055 714.662 201.505 713.682 202.255L690.732 219.804C690.383 220.071 689.956 220.215 689.517 220.215H675.786C674.682 220.215 673.786 221.111 673.786 222.215V273.408C673.786 274.512 672.891 275.408 671.786 275.408H623.577C622.473 275.408 621.577 274.512 621.577 273.408V222.215C621.577 221.111 620.682 220.215 619.577 220.215H508.718C507.613 220.215 506.718 219.32 506.718 218.215V176.082C506.718 175.68 506.839 175.288 507.065 174.956L617.998 12.2547C618.371 11.7083 618.989 11.3813 619.651 11.3813H671.786C672.891 11.3813 673.786 12.2768 673.786 13.3813V174.958ZM559.548 173.835C558.649 175.164 559.601 176.957 561.205 176.957H621.069C622.174 176.957 623.069 176.061 623.069 174.957V86.5199C623.069 84.5484 620.518 83.7662 619.413 85.3988L559.548 173.835Z" fill="#0E6552"/>
</g>
<defs>
<filter id="filter0_i_313_1358" x="0" y="0" width="714.467" height="279.408" filterUnits="userSpaceOnUse" color-interpolation-filters="sRGB">
<feFlood flood-opacity="0" result="BackgroundImageFix"/>
<feBlend mode="normal" in="SourceGraphic" in2="BackgroundImageFix" result="shape"/>
<feColorMatrix in="SourceAlpha" type="matrix" values="0 0 0 0 0 0 0 0 0 0 0 0 0 0 0 0 0 0 127 0" result="hardAlpha"/>
<feOffset dy="4"/>
<feGaussianBlur stdDeviation="2"/>
<feComposite in2="hardAlpha" operator="arithmetic" k2="-1" k3="1"/>
<feColorMatrix type="matrix" values="0 0 0 0 1 0 0 0 0 1 0 0 0 0 1 0 0 0 0.25 0"/>
<feBlend mode="normal" in2="shape" result="effect1_innerShadow_313_1358"/>
</filter>
</defs>
</svg>
