<svg width="265" height="80" viewBox="0 0 265 80" fill="none" xmlns="http://www.w3.org/2000/svg">
<path d="M27.75 66.5V58.232H24.552V57.4H31.91V58.232H28.712V66.5H27.75ZM36.9741 58.609H36.0641L33.9581 56.997H35.1931L36.9741 58.609ZM40.3411 58.817C40.3411 59.597 39.9641 60.169 39.2361 60.325V66.5H38.3521V65.252C37.8711 66.084 36.9871 66.565 35.8951 66.565C34.1531 66.565 33.0091 65.59 33.0091 63.627V59.662H33.9321V63.536C33.9321 64.992 34.6861 65.733 35.9861 65.733C37.4161 65.733 38.3131 64.81 38.3131 63.25V59.662H38.7941C39.3921 59.662 39.6521 59.272 39.6521 58.791C39.6521 58.466 39.5481 58.18 39.3921 57.959L40.0031 57.725C40.2111 58.011 40.3411 58.401 40.3411 58.817ZM52.8267 57.933V58.609H51.5397V66.5H50.6557V65.148C50.0967 66.071 49.1477 66.565 48.0167 66.565C46.0667 66.565 44.6107 65.148 44.6107 63.081C44.6107 61.014 46.0667 59.61 48.0167 59.61C49.1087 59.61 50.0447 60.078 50.6167 60.962V58.609H47.7567V57.933H50.6167V56.854H51.5397V57.933H52.8267ZM48.0947 65.746C49.5377 65.746 50.6297 64.68 50.6297 63.081C50.6297 61.482 49.5377 60.416 48.0947 60.416C46.6387 60.416 45.5467 61.482 45.5467 63.081C45.5467 64.68 46.6387 65.746 48.0947 65.746ZM59.6612 57.517H58.8552L56.9702 56.1H58.1012L59.6612 57.517ZM56.8922 57.842L55.6312 58.609H54.7472L56.4372 57.387H57.3472L59.0372 58.609H58.1532L56.8922 57.842ZM56.9052 59.61C58.9072 59.61 60.3762 61.053 60.3762 63.081C60.3762 65.109 58.9072 66.565 56.9052 66.565C54.9032 66.565 53.4212 65.109 53.4212 63.081C53.4212 61.053 54.9032 59.61 56.9052 59.61ZM56.9052 65.746C58.3612 65.746 59.4402 64.68 59.4402 63.081C59.4402 61.482 58.3612 60.416 56.9052 60.416C55.4492 60.416 54.3572 61.482 54.3572 63.081C54.3572 64.68 55.4492 65.746 56.9052 65.746ZM65.7446 59.61C67.4086 59.61 68.5526 60.572 68.5526 62.535V66.5H67.6296V62.626C67.6296 61.183 66.8756 60.442 65.5756 60.442C64.1066 60.442 63.1836 61.352 63.1836 62.912V66.5H62.2606V59.662H63.1446V60.923C63.6386 60.091 64.5616 59.61 65.7446 59.61ZM76.5309 59.662H77.4149V65.668C77.4149 68.021 76.2579 69.087 73.9959 69.087C72.7479 69.087 71.5259 68.71 70.8109 68.034L71.2789 67.332C71.9289 67.917 72.9169 68.268 73.9699 68.268C75.6989 68.268 76.4919 67.475 76.4919 65.785V64.914C75.9199 65.785 74.9449 66.24 73.8269 66.24C71.8769 66.24 70.3949 64.875 70.3949 62.912C70.3949 60.949 71.8769 59.61 73.8269 59.61C74.9709 59.61 75.9589 60.078 76.5309 60.975V59.662ZM73.9179 65.421C75.4259 65.421 76.5179 64.394 76.5179 62.912C76.5179 61.43 75.4259 60.416 73.9179 60.416C72.4099 60.416 71.3309 61.43 71.3309 62.912C71.3309 64.394 72.4099 65.421 73.9179 65.421ZM88.8063 66.5H87.7533L85.5823 63.64L83.3983 66.5H82.3583L85.0623 62.99L82.4883 59.662H83.5283L85.5823 62.34L87.6363 59.662H88.6503L86.0763 62.99L88.8063 66.5ZM92.6077 59.61C94.3757 59.61 95.3767 60.494 95.3767 62.262V66.5H94.4927V65.434C94.0767 66.136 93.2707 66.565 92.1397 66.565C90.5927 66.565 89.6437 65.759 89.6437 64.576C89.6437 63.523 90.3197 62.639 92.2827 62.639H94.4537V62.223C94.4537 61.053 93.7907 60.416 92.5167 60.416C91.6327 60.416 90.8007 60.728 90.2417 61.222L89.8257 60.533C90.5147 59.948 91.5287 59.61 92.6077 59.61ZM92.2827 65.837C93.3227 65.837 94.0897 65.343 94.4537 64.446V63.328H92.3087C90.9827 63.328 90.5537 63.848 90.5537 64.55C90.5537 65.343 91.1907 65.837 92.2827 65.837ZM101.368 59.61C103.032 59.61 104.176 60.572 104.176 62.535V66.5H103.253V62.626C103.253 61.183 102.499 60.442 101.199 60.442C99.7297 60.442 98.8067 61.352 98.8067 62.912V66.5H97.8837V59.662H98.7677V60.923C99.2617 60.091 100.185 59.61 101.368 59.61ZM110.166 59.61C111.83 59.61 112.974 60.572 112.974 62.535V66.5H112.051V62.626C112.051 61.183 111.297 60.442 109.997 60.442C108.528 60.442 107.605 61.352 107.605 62.912V66.5H106.682V56.854H107.605V60.858C108.112 60.065 109.009 59.61 110.166 59.61ZM123.718 59.662H124.628L121.586 66.5H120.637L117.608 59.662H118.57L121.131 65.486L123.718 59.662ZM133.195 58.817C133.195 59.597 132.818 60.169 132.09 60.325V66.5H131.206V65.252C130.725 66.084 129.841 66.565 128.749 66.565C127.007 66.565 125.863 65.59 125.863 63.627V59.662H126.786V63.536C126.786 64.992 127.54 65.733 128.84 65.733C130.27 65.733 131.167 64.81 131.167 63.25V59.662H131.648C132.246 59.662 132.506 59.272 132.506 58.791C132.506 58.466 132.402 58.18 132.246 57.959L132.857 57.725C133.065 58.011 133.195 58.401 133.195 58.817ZM139.398 60.273C140.243 60.884 140.763 61.872 140.763 63.081C140.763 65.109 139.294 66.565 137.292 66.565C135.29 66.565 133.808 65.109 133.808 63.081C133.808 61.053 135.29 59.61 137.292 59.61C137.994 59.61 138.28 59.688 138.904 59.688C139.632 59.688 139.957 59.259 139.957 58.778C139.957 58.453 139.84 58.18 139.697 57.946L140.295 57.712C140.49 58.011 140.646 58.401 140.646 58.804C140.646 59.532 140.204 60.104 139.398 60.273ZM137.292 65.746C138.735 65.746 139.827 64.68 139.827 63.081C139.827 61.482 138.748 60.416 137.292 60.416C135.836 60.416 134.744 61.482 134.744 63.081C134.744 64.68 135.836 65.746 137.292 65.746ZM146.131 59.61C147.795 59.61 148.939 60.572 148.939 62.535V66.5H148.016V62.626C148.016 61.183 147.262 60.442 145.962 60.442C144.493 60.442 143.57 61.352 143.57 62.912V66.5H142.647V59.662H143.531V60.923C144.025 60.091 144.948 59.61 146.131 59.61ZM155.732 61.001C156.161 60.091 157.032 59.61 158.293 59.61V60.507C158.215 60.507 158.137 60.494 158.072 60.494C156.642 60.494 155.771 61.404 155.771 63.016V66.5H154.848V59.662H155.732V61.001ZM162.343 59.61C164.111 59.61 165.112 60.494 165.112 62.262V66.5H164.228V65.434C163.812 66.136 163.006 66.565 161.875 66.565C160.328 66.565 159.379 65.759 159.379 64.576C159.379 63.523 160.055 62.639 162.018 62.639H164.189V62.223C164.189 61.053 163.526 60.416 162.252 60.416C161.368 60.416 160.536 60.728 159.977 61.222L159.561 60.533C160.25 59.948 161.264 59.61 162.343 59.61ZM162.018 65.837C163.058 65.837 163.825 65.343 164.189 64.446V63.328H162.044C160.718 63.328 160.289 63.848 160.289 64.55C160.289 65.343 160.926 65.837 162.018 65.837ZM174.297 65.421L174.622 66.084C174.258 66.409 173.712 66.565 173.179 66.565C171.892 66.565 171.177 65.837 171.177 64.576V60.442H169.955V59.662H171.177V58.167H172.1V59.662H174.18V60.442H172.1V64.524C172.1 65.33 172.516 65.772 173.283 65.772C173.66 65.772 174.037 65.655 174.297 65.421ZM179.787 59.61C181.451 59.61 182.595 60.572 182.595 62.535V66.5H181.672V62.626C181.672 61.183 180.918 60.442 179.618 60.442C178.149 60.442 177.226 61.352 177.226 62.912V66.5H176.303V56.854H177.226V60.858C177.733 60.065 178.63 59.61 179.787 59.61ZM191.652 56.1L189.78 57.517H188.961L190.534 56.1H191.652ZM187.778 57.842L186.517 58.609H185.633L187.323 57.387H188.233L189.923 58.609H189.039L187.778 57.842ZM187.778 59.61C189.702 59.61 191.093 61.027 191.093 63.081C191.093 63.159 191.08 63.263 191.08 63.367H185.36C185.464 64.797 186.556 65.746 188.051 65.746C188.883 65.746 189.624 65.447 190.144 64.849L190.664 65.447C190.053 66.175 189.104 66.565 188.025 66.565C185.893 66.565 184.437 65.109 184.437 63.081C184.437 61.053 185.854 59.61 187.778 59.61ZM187.778 60.403C186.452 60.403 185.477 61.339 185.36 62.678H190.209C190.092 61.339 189.117 60.403 187.778 60.403ZM201.821 59.662H202.705V65.668C202.705 68.021 201.548 69.087 199.286 69.087C198.038 69.087 196.816 68.71 196.101 68.034L196.569 67.332C197.219 67.917 198.207 68.268 199.26 68.268C200.989 68.268 201.782 67.475 201.782 65.785V64.914C201.21 65.785 200.235 66.24 199.117 66.24C197.167 66.24 195.685 64.875 195.685 62.912C195.685 60.949 197.167 59.61 199.117 59.61C200.261 59.61 201.249 60.078 201.821 60.975V59.662ZM199.208 65.421C200.716 65.421 201.808 64.394 201.808 62.912C201.808 61.43 200.716 60.416 199.208 60.416C197.7 60.416 196.621 61.43 196.621 62.912C196.621 64.394 197.7 65.421 199.208 65.421ZM205.754 58.167C205.377 58.167 205.078 57.868 205.078 57.504C205.078 57.153 205.377 56.854 205.754 56.854C206.131 56.854 206.43 57.14 206.43 57.491C206.43 57.868 206.144 58.167 205.754 58.167ZM205.286 66.5V59.662H206.209V66.5H205.286ZM213.743 56.997L211.637 58.609H210.727L212.508 56.997H213.743ZM213.678 60.273C214.523 60.884 215.043 61.872 215.043 63.081C215.043 65.109 213.574 66.565 211.572 66.565C209.57 66.565 208.088 65.109 208.088 63.081C208.088 61.053 209.57 59.61 211.572 59.61C212.274 59.61 212.56 59.688 213.184 59.688C213.912 59.688 214.237 59.259 214.237 58.778C214.237 58.453 214.12 58.18 213.977 57.946L214.575 57.712C214.77 58.011 214.926 58.401 214.926 58.804C214.926 59.532 214.484 60.104 213.678 60.273ZM211.572 65.746C213.015 65.746 214.107 64.68 214.107 63.081C214.107 61.482 213.028 60.416 211.572 60.416C210.116 60.416 209.024 61.482 209.024 63.081C209.024 64.68 210.116 65.746 211.572 65.746ZM217.396 58.167C217.019 58.167 216.72 57.868 216.72 57.504C216.72 57.153 217.019 56.854 217.396 56.854C217.773 56.854 218.072 57.14 218.072 57.491C218.072 57.868 217.786 58.167 217.396 58.167ZM216.928 66.5V59.662H217.851V66.5H216.928Z" fill="#0E6552"/>
<path d="M92.0156 48.5H85.9219V40.25H64.5V48.5H58.4062V31.6953C58.4062 29.2422 58.8281 26.9844 59.6719 24.9219C60.5156 22.8594 61.6875 21.0859 63.1875 19.6016C64.6875 18.1172 66.4609 16.9609 68.5078 16.1328C70.5547 15.3047 72.7891 14.8906 75.2109 14.8906H88.9453C89.3672 14.8906 89.7656 14.9687 90.1406 15.125C90.5156 15.2813 90.8438 15.5 91.125 15.7812C91.4062 16.0625 91.625 16.3906 91.7812 16.7656C91.9375 17.1406 92.0156 17.5391 92.0156 17.9609V48.5ZM64.5 34.1562H85.9219V20.9844H75.2109C75.0234 20.9844 74.625 21.0156 74.0156 21.0781C73.4219 21.125 72.7266 21.2578 71.9297 21.4766C71.1484 21.6953 70.3203 22.0312 69.4453 22.4844C68.5703 22.9375 67.7656 23.5625 67.0312 24.3594C66.2969 25.1562 65.6875 26.1562 65.2031 27.3594C64.7344 28.5469 64.5 29.9922 64.5 31.6953V34.1562ZM104.625 17.9609H98.5312V12.4531H104.625V17.9609ZM104.625 48.5H98.5312V23.1641H104.625V48.5ZM132.656 29.2578H118.945C118.117 29.2578 117.492 29.4688 117.07 29.8906C116.648 30.2969 116.438 30.8984 116.438 31.6953V48.5H110.344V31.6953C110.344 30.6484 110.477 29.7109 110.742 28.8828C111.008 28.0547 111.359 27.3281 111.797 26.7031C112.25 26.0625 112.766 25.5234 113.344 25.0859C113.922 24.6328 114.523 24.2656 115.148 23.9844C115.789 23.7031 116.43 23.5 117.07 23.375C117.727 23.2344 118.336 23.1641 118.898 23.1641H132.656V29.2578ZM147.82 48.5H145.102C144.227 48.5 143.289 48.3516 142.289 48.0547C141.305 47.7578 140.383 47.2734 139.523 46.6016C138.664 45.9141 137.953 45.0312 137.391 43.9531C136.828 42.8594 136.547 41.5234 136.547 39.9453V12.4531H142.641V39.9453C142.641 40.6953 142.875 41.2969 143.344 41.75C143.812 42.1875 144.398 42.4062 145.102 42.4062H147.82V48.5ZM157.922 17.9609H151.828V12.4531H157.922V17.9609ZM157.922 48.5H151.828V23.1641H157.922V48.5ZM191.859 48.5H185.766V34.4375C185.766 33.6406 185.625 32.9297 185.344 32.3047C185.078 31.6641 184.711 31.1172 184.242 30.6641C183.773 30.2109 183.219 29.8672 182.578 29.6328C181.953 29.3828 181.273 29.2578 180.539 29.2578H169.875V48.5H163.781V26.1875C163.781 25.7656 163.859 25.375 164.016 25.0156C164.172 24.6406 164.391 24.3203 164.672 24.0547C164.953 23.7734 165.281 23.5547 165.656 23.3984C166.031 23.2422 166.43 23.1641 166.852 23.1641H180.586C181.352 23.1641 182.156 23.25 183 23.4219C183.859 23.5938 184.703 23.875 185.531 24.2656C186.375 24.6406 187.172 25.125 187.922 25.7188C188.688 26.2969 189.359 27.0078 189.938 27.8516C190.531 28.6797 191 29.6406 191.344 30.7344C191.688 31.8281 191.859 33.0625 191.859 34.4375V48.5ZM224.461 31.5547C224.461 32.3984 224.312 33.3125 224.016 34.2969C223.719 35.2656 223.234 36.1719 222.562 37.0156C221.906 37.8438 221.039 38.5391 219.961 39.1016C218.898 39.6641 217.602 39.9453 216.07 39.9453H205.078V34.1562H216.07C216.898 34.1562 217.539 33.9062 217.992 33.4062C218.445 32.8906 218.672 32.2578 218.672 31.5078C218.672 30.7109 218.414 30.0859 217.898 29.6328C217.398 29.1797 216.789 28.9531 216.07 28.9531H205.078C204.25 28.9531 203.609 29.2109 203.156 29.7266C202.703 30.2266 202.477 30.8516 202.477 31.6016V40.1094C202.477 40.9219 202.727 41.5547 203.227 42.0078C203.742 42.4609 204.375 42.6875 205.125 42.6875H216.07V48.5H205.078C204.234 48.5 203.32 48.3516 202.336 48.0547C201.367 47.7578 200.461 47.2812 199.617 46.625C198.789 45.9531 198.094 45.0859 197.531 44.0234C196.969 42.9453 196.688 41.6406 196.688 40.1094V31.5547C196.688 30.7109 196.836 29.8047 197.133 28.8359C197.43 27.8516 197.906 26.9453 198.562 26.1172C199.234 25.2734 200.102 24.5703 201.164 24.0078C202.242 23.4453 203.547 23.1641 205.078 23.1641H216.07C216.914 23.1641 217.82 23.3125 218.789 23.6094C219.773 23.9062 220.68 24.3906 221.508 25.0625C222.352 25.7188 223.055 26.5859 223.617 27.6641C224.18 28.7266 224.461 30.0234 224.461 31.5547Z" fill="#0E6552"/>
<path d="M10.5 48C4.1 47.6 1.16667 40.1667 0.5 36.5C7.7 45.3 16.375 40.1667 19.8125 36.5L35.5 18.5L27 15.5L48 9.5L45.5 31.5L41 23.5C37.3333 28.1667 29.1 38.3 25.5 41.5C21 45.5 18.5 48.5 10.5 48Z" fill="#D0E32F"/>
<path d="M5 38C9.4 40.8 14.1667 38.1667 16 36.5C13.5 35.5 8.5 31.5 8.5 25C8.5 18.5 9.5 15.5 16 11.5C21.2 8.3 27.8333 10.8333 30.5 12.5L39.5 10C36 5 28.5 3.00002 26.5 2.50002C24.5 2.00002 14.5 1.00002 8.5 6.50002C2.5 12 0 16.5 0 24.5C0 30.9 3.33333 36.1667 5 38Z" fill="#0E6552"/>
<path d="M42.5 34.5L40 31C40 31 37 35.5 32 39.5C29.0406 42.2287 24 46 24 46L31.5 45L37.5 50.5L49.5 47V42L38.5 45.5L36 42C40.5 38.5 41.6667 36.6667 42.5 34.5Z" fill="#0E6552"/>
<path d="M51.5 6.5H47.5L50.5 4L49.5 0L52.5 2.50002L56.5 0L55 4L58 7H54L52.5 10.5L51.5 6.5Z" fill="#0E6552"/>
</svg>
