<svg width="58" height="51" viewBox="0 0 58 51" fill="none" xmlns="http://www.w3.org/2000/svg">
<path d="M10.5 48C4.1 47.6 1.16667 40.1667 0.5 36.5C7.7 45.3 16.375 40.1667 19.8125 36.5L35.5 18.5L27 15.5L48 9.5L45.5 31.5L41 23.5C37.3333 28.1667 29.1 38.3 25.5 41.5C21 45.5 18.5 48.5 10.5 48Z" fill="#D0E32F"/>
<path d="M5 38C9.4 40.8 14.1667 38.1667 16 36.5C13.5 35.5 8.5 31.5 8.5 25C8.5 18.5 9.5 15.5 16 11.5C21.2 8.3 27.8333 10.8333 30.5 12.5L39.5 10C36 5 28.5 3.00002 26.5 2.50002C24.5 2.00002 14.5 1.00002 8.5 6.50002C2.5 12 0 16.5 0 24.5C0 30.9 3.33333 36.1667 5 38Z" fill="#0E6552"/>
<path d="M42.5 34.5L40 31C40 31 37 35.5 32 39.5C29.0406 42.2287 24 46 24 46L31.5 45L37.5 50.5L49.5 47V42L38.5 45.5L36 42C40.5 38.5 41.6667 36.6667 42.5 34.5Z" fill="#0E6552"/>
<path d="M51.5 6.5H47.5L50.5 4L49.5 0L52.5 2.50002L56.5 0L55 4L58 7H54L52.5 10.5L51.5 6.5Z" fill="#0E6552"/>
</svg>
